<svg xmlns="http://www.w3.org/2000/svg" viewBox="0 0 500 300">
  <g transform="translate(0,300) scale(0.1,-0.1)" fill="#FFFFFF" stroke="none">
    <path d="M2990 2620 c-172 -36 -317 -100 -450 -199 -205 -152 -335 -354 -407
-629 -26 -100 -28 -120 -28 -302 1 -209 9 -266 62 -420 35 -105 71 -172 141
-265 99 -133 249 -262 367 -315 91 -42 140 -62 180 -75 145 -48 437 -61 587
-25 91 21 217 65 232 80 6 6 15 10 22 10 34 0 166 93 254 180 136 133 205 247
255 420 31 109 55 307 55 463 l0 107 -540 0 -540 0 0 -205 0 -205 285 0 c238
0 285 -2 285 -14 0 -31 -50 -159 -76 -194 -76 -105 -199 -180 -329 -203 -40
-7 -112 -10 -174 -6 -161 8 -247 45 -393 171 -27 23 -48 44 -48 48 0 4 -14 27
-30 52 -79 117 -115 245 -114 411 1 99 6 135 27 205 37 122 90 212 177 301 87
89 179 139 308 166 90 18 238 13 317 -12 73 -23 183 -81 226 -119 20 -19 43
-37 51 -42 8 -5 24 -24 37 -42 13 -18 27 -32 33 -30 5 2 83 77 173 167 l163
164 -31 39 c-18 21 -59 59 -92 83 -33 25 -64 48 -70 53 -76 57 -247 139 -328
159 -161 39 -196 43 -347 42 -109 0 -180 -6 -240 -19z"/>
    <path d="M1498 1868 l-3 -743 -29 -83 c-58 -168 -187 -241 -370 -212 -82 13
-152 47 -212 102 l-45 41 -155 -154 c-85 -85 -160 -163 -166 -173 -9 -17 -6
-24 18 -44 50 -40 133 -102 139 -102 3 0 22 -11 43 -24 48 -30 168 -73 255
-92 104 -22 335 -19 430 5 329 85 522 286 579 606 16 95 18 141 14 335 -3 124
-6 462 -6 753 l0 527 -245 0 -244 0 -3 -742z"/>
  </g>
  <circle cx="435" cy="262" r="20" fill="#FF5500"/>
</svg>